<svg width="17" height="100" viewBox="0 0 17 100" fill="none" xmlns="http://www.w3.org/2000/svg">
<line x1="8.4248" y1="4" x2="8.4248" y2="95" stroke="#655757" stroke-width="3" stroke-dasharray="4 4"/>
<ellipse cx="9.20578" cy="5.5" rx="6.34774" ry="5.5" fill="#655757"/>
<path d="M14.0038 42.5C14.0038 44.8555 11.749 47 8.65609 47C5.56323 47 3.30835 44.8555 3.30835 42.5C3.30835 40.1445 5.56323 38 8.65609 38C11.749 38 14.0038 40.1445 14.0038 42.5Z" fill="white" stroke="#655757" stroke-width="2"/>
<ellipse cx="8.65609" cy="94.5" rx="6.34774" ry="5.5" fill="#655757"/>
<path d="M7.875 14.75C11.5391 14.75 14 15.7344 14 16.9375V18.25C14.4648 18.25 14.875 18.6602 14.875 19.125V20.875C14.875 21.3672 14.4648 21.75 14 21.75V26.125C14 26.6172 13.5898 27 13.125 27V27.875C13.125 28.3672 12.7148 28.75 12.25 28.75H11.375C10.8828 28.75 10.5 28.3672 10.5 27.875V27H5.25V27.875C5.25 28.3672 4.83984 28.75 4.375 28.75H3.5C3.00781 28.75 2.625 28.3672 2.625 27.875V27C2.13281 27 1.75 26.6172 1.75 26.125V21.75C1.25781 21.75 0.875 21.3672 0.875 20.875V19.125C0.875 18.6602 1.25781 18.25 1.75 18.25V16.9375C1.75 15.7344 4.18359 14.75 7.875 14.75ZM3.5 21.75C3.5 22.2422 3.88281 22.625 4.375 22.625H7.4375V18.25H4.375C3.88281 18.25 3.5 18.6602 3.5 19.125V21.75ZM8.3125 22.625H11.375C11.8398 22.625 12.25 22.2422 12.25 21.75V19.125C12.25 18.6602 11.8398 18.25 11.375 18.25H8.3125V22.625ZM3.9375 25.6875C4.40234 25.6875 4.8125 25.3047 4.8125 24.8125C4.8125 24.3477 4.40234 23.9375 3.9375 23.9375C3.44531 23.9375 3.0625 24.3477 3.0625 24.8125C3.0625 25.3047 3.44531 25.6875 3.9375 25.6875ZM11.8125 25.6875C12.2773 25.6875 12.6875 25.3047 12.6875 24.8125C12.6875 24.3477 12.2773 23.9375 11.8125 23.9375C11.3203 23.9375 10.9375 24.3477 10.9375 24.8125C10.9375 25.3047 11.3203 25.6875 11.8125 25.6875ZM10.0625 16.5H5.6875C5.44141 16.5 5.25 16.7188 5.25 16.9375C5.25 17.1836 5.44141 17.375 5.6875 17.375H10.0625C10.2812 17.375 10.5 17.1836 10.5 16.9375C10.5 16.7188 10.2812 16.5 10.0625 16.5Z" fill="white"/>
</svg>
