<svg width="47" height="32" viewBox="0 0 47 32" fill="none" xmlns="http://www.w3.org/2000/svg">
<rect x="1.5" y="1.5" width="44" height="28" rx="14" fill="#F704FC" stroke="#F704FC" stroke-width="3"/>
<path d="M9.408 22V10.8H14.24C14.944 10.8 15.568 10.96 16.112 11.28C16.6667 11.6 17.104 12.0373 17.424 12.592C17.7547 13.1467 17.92 13.7707 17.92 14.464C17.92 15.1893 17.7547 15.84 17.424 16.416C17.104 16.9813 16.6667 17.4293 16.112 17.76C15.568 18.0907 14.944 18.256 14.24 18.256H12.128V22H9.408ZM12.08 15.872H13.856C14.0907 15.872 14.304 15.8133 14.496 15.696C14.688 15.5787 14.8427 15.4187 14.96 15.216C15.0773 15.0133 15.136 14.7787 15.136 14.512C15.136 14.2347 15.0773 14 14.96 13.808C14.8427 13.616 14.688 13.4667 14.496 13.36C14.304 13.2533 14.0907 13.2 13.856 13.2H12.08V15.872ZM21.9698 21.216V12.128L22.5618 13.488L20.1618 14.624L19.6978 12.192L22.8818 10.64H24.6418V21.216H21.9698ZM19.9218 22V19.6H26.7378V22H19.9218ZM32.1545 22.16C31.2478 22.16 30.4532 21.9733 29.7705 21.6C29.0985 21.216 28.4852 20.56 27.9305 19.632L29.8825 18.368C30.1172 18.7413 30.3572 19.04 30.6025 19.264C30.8585 19.488 31.1198 19.6533 31.3865 19.76C31.6638 19.856 31.9518 19.904 32.2505 19.904C32.5492 19.904 32.8212 19.84 33.0665 19.712C33.3225 19.5733 33.5252 19.3813 33.6745 19.136C33.8345 18.8907 33.9145 18.6133 33.9145 18.304C33.9145 17.9733 33.8452 17.696 33.7065 17.472C33.5785 17.2373 33.3865 17.0613 33.1305 16.944C32.8852 16.8267 32.5865 16.768 32.2345 16.768C32.0745 16.768 31.9038 16.7893 31.7225 16.832C31.5412 16.864 31.3492 16.912 31.1465 16.976C30.9438 17.04 30.7358 17.1253 30.5225 17.232L29.9305 15.648L32.6505 12.688L33.3865 13.088L28.7145 12.992V10.704H35.5945L36.0905 11.696L32.3945 15.664L31.7545 14.912C31.8398 14.8693 31.9785 14.832 32.1705 14.8C32.3732 14.7573 32.5652 14.736 32.7465 14.736C33.2478 14.736 33.7172 14.8267 34.1545 15.008C34.5918 15.1893 34.9812 15.44 35.3225 15.76C35.6638 16.08 35.9305 16.4587 36.1225 16.896C36.3145 17.3227 36.4105 17.7813 36.4105 18.272C36.4105 19.0187 36.2185 19.6853 35.8345 20.272C35.4612 20.848 34.9492 21.3067 34.2985 21.648C33.6585 21.9893 32.9438 22.16 32.1545 22.16Z" fill="white"/>
</svg>
