<svg width="47" height="32" viewBox="0 0 47 32" fill="none" xmlns="http://www.w3.org/2000/svg">
<rect x="1.5" y="1.5" width="44" height="28" rx="14" fill="#FF7009" stroke="#FF7009" stroke-width="3"/>
<path d="M14.408 23V11.8H19.24C19.944 11.8 20.568 11.96 21.112 12.28C21.6667 12.6 22.104 13.0373 22.424 13.592C22.7547 14.1467 22.92 14.7707 22.92 15.464C22.92 16.1893 22.7547 16.84 22.424 17.416C22.104 17.9813 21.6667 18.4293 21.112 18.76C20.568 19.0907 19.944 19.256 19.24 19.256H17.128V23H14.408ZM17.08 16.872H18.856C19.0907 16.872 19.304 16.8133 19.496 16.696C19.688 16.5787 19.8427 16.4187 19.96 16.216C20.0773 16.0133 20.136 15.7787 20.136 15.512C20.136 15.2347 20.0773 15 19.96 14.808C19.8427 14.616 19.688 14.4667 19.496 14.36C19.304 14.2533 19.0907 14.2 18.856 14.2H17.08V16.872ZM28.2977 23C27.7218 23 27.1778 22.8987 26.6658 22.696C26.1644 22.4827 25.7271 22.1947 25.3538 21.832C24.9804 21.4587 24.6818 21.0267 24.4578 20.536C24.2444 20.0453 24.1378 19.5173 24.1378 18.952C24.1378 18.5573 24.1804 18.1787 24.2658 17.816C24.3511 17.4427 24.4684 17.0693 24.6178 16.696C24.7778 16.312 24.9644 15.9227 25.1778 15.528C25.4018 15.1227 25.6471 14.696 25.9138 14.248L27.4818 11.624H29.9938L30.0578 11.784L27.8818 15.208C27.6044 15.656 27.3644 16.0773 27.1618 16.472C26.9591 16.856 26.7778 17.24 26.6178 17.624C26.4578 18.008 26.2978 18.4133 26.1378 18.84L25.6258 17.736C25.7324 17.3627 25.9031 17.0213 26.1378 16.712C26.3724 16.392 26.6444 16.12 26.9538 15.896C27.2738 15.6613 27.6044 15.4853 27.9458 15.368C28.2871 15.24 28.6231 15.176 28.9538 15.176C29.5831 15.176 30.1591 15.3467 30.6818 15.688C31.2151 16.0187 31.6418 16.4613 31.9618 17.016C32.2818 17.5707 32.4418 18.1787 32.4418 18.84C32.4418 19.6293 32.2604 20.3387 31.8978 20.968C31.5458 21.5973 31.0551 22.0933 30.4258 22.456C29.8071 22.8187 29.0978 23 28.2977 23ZM28.3298 20.76C28.6711 20.76 28.9698 20.6853 29.2258 20.536C29.4924 20.3867 29.7004 20.1787 29.8498 19.912C29.9991 19.6347 30.0738 19.32 30.0738 18.968C30.0738 18.6693 29.9938 18.392 29.8338 18.136C29.6844 17.8693 29.4764 17.656 29.2098 17.496C28.9538 17.3253 28.6658 17.24 28.3458 17.24C28.0044 17.24 27.6951 17.32 27.4178 17.48C27.1511 17.6293 26.9431 17.8373 26.7938 18.104C26.6444 18.36 26.5698 18.648 26.5698 18.968C26.5698 19.3093 26.6444 19.6187 26.7938 19.896C26.9431 20.1627 27.1511 20.376 27.4178 20.536C27.6844 20.6853 27.9884 20.76 28.3298 20.76Z" fill="white"/>
</svg>
