<svg width="47" height="32" viewBox="0 0 47 32" fill="none" xmlns="http://www.w3.org/2000/svg">
<rect x="1.5" y="1.5" width="44" height="28" rx="14" fill="#0192D3" stroke="#0192D3" stroke-width="3"/>
<path d="M14.408 23V11.8H19.24C19.944 11.8 20.568 11.96 21.112 12.28C21.6667 12.6 22.104 13.0373 22.424 13.592C22.7547 14.1467 22.92 14.7707 22.92 15.464C22.92 16.1893 22.7547 16.84 22.424 17.416C22.104 17.9813 21.6667 18.4293 21.112 18.76C20.568 19.0907 19.944 19.256 19.24 19.256H17.128V23H14.408ZM17.08 16.872H18.856C19.0907 16.872 19.304 16.8133 19.496 16.696C19.688 16.5787 19.8427 16.4187 19.96 16.216C20.0773 16.0133 20.136 15.7787 20.136 15.512C20.136 15.2347 20.0773 15 19.96 14.808C19.8427 14.616 19.688 14.4667 19.496 14.36C19.304 14.2533 19.0907 14.2 18.856 14.2H17.08V16.872ZM28.3778 23.048C27.6098 23.048 26.9111 22.904 26.2818 22.616C25.6631 22.3173 25.1671 21.9173 24.7938 21.416C24.4204 20.9147 24.2338 20.3493 24.2338 19.72C24.2338 19.304 24.2871 18.9307 24.3938 18.6C24.5004 18.2587 24.6604 17.96 24.8738 17.704C25.0978 17.4373 25.3644 17.2133 25.6738 17.032C25.9938 16.84 26.3564 16.6853 26.7618 16.568L26.5698 17.208C26.2711 17.0907 25.9991 16.9467 25.7538 16.776C25.5084 16.6053 25.3004 16.4133 25.1298 16.2C24.9591 15.976 24.8258 15.736 24.7298 15.48C24.6444 15.224 24.6018 14.9573 24.6018 14.68C24.6018 14.0827 24.7671 13.5547 25.0978 13.096C25.4391 12.6373 25.8924 12.28 26.4578 12.024C27.0338 11.7573 27.6738 11.624 28.3778 11.624C29.0711 11.624 29.7004 11.7573 30.2658 12.024C30.8418 12.28 31.3004 12.6373 31.6418 13.096C31.9831 13.5547 32.1538 14.0827 32.1538 14.68C32.1538 14.9573 32.1111 15.224 32.0258 15.48C31.9404 15.736 31.8124 15.9707 31.6418 16.184C31.4711 16.3867 31.2631 16.5787 31.0178 16.76C30.7724 16.9307 30.4898 17.08 30.1698 17.208L30.0258 16.632C30.3884 16.728 30.7244 16.8667 31.0338 17.048C31.3431 17.2187 31.6098 17.4373 31.8338 17.704C32.0578 17.96 32.2284 18.2587 32.3458 18.6C32.4738 18.9307 32.5378 19.304 32.5378 19.72C32.5378 20.36 32.3511 20.9307 31.9778 21.432C31.6044 21.9333 31.1031 22.328 30.4738 22.616C29.8444 22.904 29.1458 23.048 28.3778 23.048ZM28.3778 20.904C28.6764 20.904 28.9431 20.8453 29.1778 20.728C29.4124 20.6107 29.5991 20.4507 29.7378 20.248C29.8764 20.0453 29.9458 19.8107 29.9458 19.544C29.9458 19.2667 29.8764 19.0267 29.7378 18.824C29.6098 18.6107 29.4231 18.4453 29.1778 18.328C28.9431 18.2 28.6764 18.136 28.3778 18.136C28.0791 18.136 27.8124 18.2 27.5778 18.328C27.3431 18.4453 27.1564 18.6107 27.0178 18.824C26.8791 19.0267 26.8098 19.2667 26.8098 19.544C26.8098 19.8 26.8791 20.0293 27.0178 20.232C27.1564 20.4347 27.3431 20.6 27.5778 20.728C27.8124 20.8453 28.0791 20.904 28.3778 20.904ZM28.3778 15.976C28.6338 15.976 28.8631 15.928 29.0658 15.832C29.2791 15.7253 29.4444 15.5867 29.5618 15.416C29.6791 15.2347 29.7378 15.0267 29.7378 14.792C29.7378 14.5573 29.6791 14.3493 29.5618 14.168C29.4444 13.9867 29.2791 13.8427 29.0658 13.736C28.8631 13.6293 28.6338 13.576 28.3778 13.576C28.1111 13.576 27.8711 13.6293 27.6578 13.736C27.4551 13.8427 27.2951 13.9867 27.1778 14.168C27.0604 14.3493 27.0018 14.5573 27.0018 14.792C27.0018 15.0267 27.0604 15.2347 27.1778 15.416C27.2951 15.5867 27.4551 15.7253 27.6578 15.832C27.8711 15.928 28.1111 15.976 28.3778 15.976Z" fill="white"/>
</svg>
